<svg xmlns="http://www.w3.org/2000/svg" version="1.1" xmlns:xlink="http://www.w3.org/1999/xlink" xmlns:svgjs="http://svgjs.dev/svgjs" width="2000" height="1000" preserveAspectRatio="none" viewBox="0 0 2000 1000"><g mask="url(&quot;#SvgjsMask1171&quot;)" fill="none"><rect width="2000" height="1000" x="0" y="0" fill="rgba(136, 249, 164, 1)"></rect><path d="M0,788.611C162.416,790.265,352.758,845.982,474.798,738.801C598.303,630.333,520.106,418.205,590.749,269.786C663.233,117.5,892.537,41.016,887.159,-127.554C881.902,-292.338,682.964,-374.184,566.481,-490.859C459.117,-598.4,377.309,-745.758,230.565,-785.233C84.624,-824.492,-63.215,-750.531,-205.072,-698.411C-338.341,-649.446,-460.965,-585.534,-567.72,-491.932C-688.064,-386.415,-841.711,-282.667,-860.513,-123.723C-879.299,35.085,-728.424,156.859,-661.658,302.169C-595.091,447.046,-597.081,634.751,-468.623,729.191C-339.138,824.387,-160.705,786.974,0,788.611" fill="#55f67d"></path><path d="M2000 1791.633C2144.205 1770.6799999999998 2240.813 1643.493 2368.927 1574.062 2510.673 1497.243 2738.955 1514.018 2792.717 1362.022 2847.999 1205.728 2622.557 1077.936 2602.62 913.356 2581.908 742.3820000000001 2785.285 547.255 2677.723 412.75 2571.9 280.41999999999996 2349.786 391.385 2180.451 385.44000000000005 2057.451 381.12199999999996 1941.022 368.87199999999996 1818.713 382.59400000000005 1671.4270000000001 399.11800000000005 1508.3 381.00199999999995 1392.748 473.813 1271.838 570.928 1204.423 729.403 1194.261 884.152 1184.404 1034.259 1277.027 1164.8029999999999 1338.354 1302.164 1400.257 1440.816 1433.0059999999999 1602.009 1555.077 1692.3139999999999 1679.7649999999999 1784.5549999999998 1846.513 1813.935 2000 1791.633" fill="#bbfccb"></path></g><defs><mask id="SvgjsMask1171"><rect width="2000" height="1000" fill="#ffffff"></rect></mask></defs></svg>